<?xml version="1.0" encoding="utf-8"?>
<!-- Generator: Adobe Illustrator 26.2.1, SVG Export Plug-In . SVG Version: 6.00 Build 0)  -->
<svg version="1.1" id="lanceLogoMono" xmlns="http://www.w3.org/2000/svg" xmlns:xlink="http://www.w3.org/1999/xlink" x="0px"
	 y="0px" viewBox="0 0 170.7 21.5" style="enable-background:new 0 0 170.7 21.5;" xml:space="preserve">
<style type="text/css">
	.st0{fill:#262626;}
</style>
<path class="st0" d="M98.8,6.6v0.2L100,8v11.9L98.8,21v0.2h7.3V21l-1.2-1.1l0-11.9V6.6H98.8z M142.8,18.7c-0.9-1.4-1.6-2.9-2.1-4.4
	c-0.6-1.6-1-3.3-1.1-5c0-1.2,0.4-1.8,1.1-1.8c1.2,0,2.6,2,4,5.9c0.6,1.6,1,3.4,1.2,5.1c0,0.9-0.2,1.5-0.7,1.6c-0.1,0-0.3,0-0.4,0
	C144.2,20.2,143.5,19.7,142.8,18.7 M140.1,7c-1.2,0.6-2.2,1.4-3,2.5c-1,1.4-1.5,3.1-1.4,4.8c0,1.3,0.3,2.5,0.9,3.7
	c0.6,1.1,1.4,2,2.5,2.7c1.1,0.7,2.4,1,3.7,1c0.9-0.1,1.7-0.3,2.5-0.7c1.2-0.6,2.2-1.4,3-2.5c1-1.4,1.5-3,1.4-4.7
	c0-1.3-0.3-2.6-0.9-3.7c-0.6-1.1-1.4-2-2.5-2.7c-1.1-0.7-2.4-1-3.7-1C141.8,6.3,140.9,6.6,140.1,7 M111.3,7
	c-1.2,0.5-2.3,1.4-3.1,2.5c-1,1.3-1.4,2.9-1.4,4.5c0,1.4,0.3,2.8,1,4c0.6,1.1,1.6,2,2.7,2.6c1.2,0.6,2.6,0.9,3.9,0.9
	c0.8-0.2,1.5-0.6,2.1-1.2c1.1-1,2.2-2,3.2-3.1l-0.1-0.2c-0.8,0.5-1.7,0.7-2.6,0.8c-1.3,0-2.5-0.5-3.4-1.3c-1-0.9-1.8-2-2.4-3.3
	c-0.5-1.1-0.8-2.3-0.9-3.5c0-0.6,0.1-1.1,0.4-1.6c0.2-0.3,0.6-0.5,1.1-0.5c0.7,0,1.3,0.5,1.9,1.6c0.6,1.2,1,2.4,1.1,3.8l0.1,0.1
	l4.5-3.9c-0.2-0.4-0.5-0.8-0.8-1.1c-0.5-0.5-1.1-0.9-1.8-1.2c-0.9-0.4-1.8-0.5-2.7-0.5C113.1,6.3,112.2,6.6,111.3,7 M169.8,6.1
	l-1.3,1.1c-1.2-0.6-2.5-0.9-3.8-0.9c-1.4-0.1-2.8,0.4-3.9,1.2c-1,0.8-1.5,2-1.5,3.3c0,0.8,0.3,1.6,0.7,2.2c0.6,0.8,1.4,1.5,2.2,2
	l3.2,2.1c0.7,0.4,1.4,1,2.1,1.5c0.3,0.2,0.5,0.6,0.6,1c0,0.2-0.1,0.5-0.2,0.6c-0.2,0.1-0.4,0.2-0.6,0.2c-0.9-0.1-1.8-0.4-2.6-0.9
	c-1.1-0.7-2.2-1.6-3.1-2.6c-1.1-1.1-1.9-2.3-2.6-3.7h-0.2l0.6,7.6c0.3-0.1,0.6-0.1,0.9-0.1c0.4,0,0.7,0.1,1.1,0.2
	c0.4,0.1,0.6,0.1,0.8,0.1c0.6,0.1,1.1,0.2,1.4,0.3c0.4,0.1,0.9,0.1,1.4,0.1c1.2,0,2.3-0.2,3.4-0.7c0.8-0.4,1.4-1,1.9-1.8
	c0.4-0.7,0.5-1.4,0.5-2.1c0-0.6-0.1-1.3-0.5-1.8c-0.3-0.5-0.7-1-1.2-1.4c-0.5-0.4-1.1-0.9-2-1.5l-3.4-2.5c-0.5-0.3-0.9-0.7-1.3-1.1
	c-0.3-0.2-0.4-0.6-0.4-0.9c0-0.5,0.3-0.7,0.9-0.7c0.7,0.1,1.3,0.3,1.9,0.6c0.9,0.5,1.8,1.2,2.5,2c1,1,1.8,2.1,2.6,3.3h0.2V6
	L169.8,6.1z M90.2,2.8v0.2c1.7,1.8,3,3.8,4,6c1,2.1,1.5,4.4,1.6,6.7v1.6h-0.2L86.8,2.8h-6.5v0.1l1.8,2.9v15.3h6.3v-0.2
	c-1.7-1.7-3.1-3.6-4.2-5.7c-1-2.1-1.5-4.4-1.5-6.8V6.7H83l8.9,14.5h4.6V2.8H90.2z M100.6,1.2c-0.4,0.4-0.7,1-0.7,1.6
	c0,0.6,0.2,1.2,0.7,1.6c0.5,0.4,1.1,0.6,1.8,0.6c0.6,0,1.2-0.2,1.7-0.6c0.4-0.4,0.7-1,0.6-1.6c0-0.6-0.2-1.2-0.6-1.6
	c-0.5-0.4-1.1-0.6-1.7-0.6C101.7,0.6,101.1,0.8,100.6,1.2 M125.8,0l-6.3,2v0.2l1.7,0.6v17.1l-1.2,1.1v0.2h7.3v-0.2l-1.3-1.1v-9.3
	c0.3-0.6,1-1,1.7-1c1,0,1.5,0.6,1.5,1.8v8.5l-1.3,1.1v0.2h7.3v-0.2l-1.2-1.1V11c0.1-1.2-0.3-2.4-1-3.4c-0.8-0.9-1.9-1.4-3.1-1.3
	c-0.8,0-2,1.2-3.8,3.5V0H125.8z M156.2,0l-6.3,2v0.2l1.7,0.6v17.1l-1.2,1.1v0.2h7.3v-0.2l-1.3-1.1V0H156.2z M36.6,10.2L36.6,10.2
	c0-0.2,0-0.5,0-0.9C36.7,8.5,36.5,7.7,36,7c-0.4-0.4-0.9-0.7-1.5-0.7c-0.5,0-0.9,0.2-1.3,0.5c-0.4,0.3-0.8,0.7-1.2,1.1
	c-0.4,0.4-0.8,1.1-1.4,2L30,10.7l0.1,0.1l2-1v10.1L30.8,21v0.2h7.3V21l-1.2-1.1v-9.4c0.3-0.6,1-0.9,1.6-0.9c1,0,1.5,0.6,1.5,1.8v8.5
	L38.7,21v0.2H46V21l-1.3-1.1v-8.8c0.1-1.2-0.3-2.4-1-3.4c-0.8-0.9-1.9-1.4-3.1-1.3C39.8,6.3,38.5,7.6,36.6,10.2 M30.3,17l-2,1v-0.4
	l0.2-4.8c0-0.7,0.1-1.4,0.1-2.1c0-0.8-0.1-1.6-0.3-2.4c-0.2-0.6-0.6-1.2-1.2-1.5c-0.8-0.4-1.7-0.6-2.6-0.5c-0.7,0.1-1.5,0.2-2.2,0.5
	l0,0c-1.2,0.5-2.3,1.2-3.3,2c-1.4,1.3-2.5,2.9-3.3,4.7l0.1,0.1l5-1.4c-0.3-0.8-0.5-1.7-0.5-2.6c0-0.5,0.1-0.9,0.3-1.3
	c0.2-0.3,0.6-0.4,1-0.4c0.6,0,1.1,0.4,1.5,1.2c0.4,1,0.6,2.1,0.5,3.2l-3,1.3c-1.2,0.5-2.4,1.3-3.5,2.2c-0.8,0.7-1.3,1.8-1.3,2.8
	c0,0.8,0.3,1.6,0.9,2.1c0.6,0.5,1.4,0.8,2.3,0.8c1,0,2-0.3,2.7-1c0.8-0.8,1.4-1.8,1.9-2.8h0.1c0,0.3,0,0.5,0,0.8
	c-0.1,0.8,0.1,1.6,0.6,2.3c0.4,0.5,0.9,0.7,1.5,0.7c0.7,0,1.3-0.3,1.8-0.8c0.8-0.8,1.5-1.7,2.1-2.7l0.6-0.8L30.3,17z M23.7,16.7
	c-0.2,0.4-0.5,0.8-0.9,1.1c-0.3,0.2-0.6,0.4-1,0.4c-0.3,0-0.6-0.1-0.8-0.4l0,0c-0.3-0.3-0.4-0.7-0.4-1.1c0-0.7,0.3-1.3,0.7-1.8
	c0.7-0.8,1.5-1.4,2.4-2L23.7,16.7z M51.1,7c-1.2,0.5-2.3,1.4-3.1,2.5c-1,1.3-1.5,3-1.4,4.6c0,1.4,0.3,2.8,1,4c0.6,1.1,1.6,2,2.7,2.6
	c1.2,0.6,2.6,0.9,3.9,0.9c0.8-0.2,1.5-0.6,2.1-1.2c1.1-1,2.2-2,3.2-3.1l-0.1-0.2c-0.8,0.5-1.7,0.7-2.6,0.7c-1.3,0-2.5-0.5-3.4-1.4
	c-1-0.9-1.8-2-2.4-3.3c-0.5-1.1-0.8-2.3-0.9-3.5c0-0.6,0.1-1.1,0.4-1.6c0.2-0.3,0.6-0.5,1-0.5c0.7,0,1.3,0.6,1.9,1.7
	c0.6,1.2,1,2.4,1.1,3.8l0.1,0.1l4.5-3.9c-0.2-0.4-0.4-0.8-0.7-1.2c-0.5-0.5-1.1-0.9-1.8-1.2c-0.9-0.4-1.8-0.5-2.7-0.5
	C53,6.3,52,6.6,51.1,7 M72.6,17.1c-0.4,0.2-0.9,0.4-1.4,0.6c-0.4,0.1-0.8,0.2-1.2,0.2c-1.2,0-2.5-0.4-3.4-1.2
	c-1-0.8-1.8-1.9-2.3-3.1h3.5c0.6,0,1.2-0.2,1.7-0.4c0.7-0.3,1.4-0.6,2.1-1c0.6-0.4,0.9-0.7,0.9-0.9c-0.1-1.3-0.6-2.6-1.5-3.5
	c-1-1-2.4-1.4-3.8-1.3c-1,0.1-2,0.3-2.9,0.7l0-0.1c-1.2,0.5-2.3,1.4-3.2,2.5c-1,1.3-1.5,3-1.4,4.7c0,1.4,0.3,2.7,1,3.9
	c0.7,1.1,1.6,2,2.8,2.6c1.2,0.6,2.6,0.9,3.9,0.9c0.9,0,2.6-1.4,5.2-4.3L72.6,17.1z M63.5,9.9c0-0.6,0.1-1.2,0.4-1.8
	c0.2-0.4,0.6-0.6,1-0.6c0.5,0,1,0.3,1.3,0.7c0.5,0.6,0.8,1.3,1,2c0.3,0.9,0.4,1.9,0.4,2.8h-3.5C63.7,12.1,63.5,11,63.5,9.9z M0,2.8
	V3l1.4,1.5l0.1,15.1L0,21v0.2h14.5v-8.8h-0.2l-0.8,1.4c-0.9,1.7-1.7,3.1-2.2,4c-0.5,0.8-1,1.5-1.7,2.1c-0.6,0.5-1.3,0.8-2.1,0.8H6.7
	V4.5L8.1,3V2.8H0z"/>
</svg>
