<?xml version="1.0" encoding="utf-8"?>
<!-- Generator: Adobe Illustrator 26.2.1, SVG Export Plug-In . SVG Version: 6.00 Build 0)  -->
<svg version="1.1" id="Layer_1" xmlns="http://www.w3.org/2000/svg" xmlns:xlink="http://www.w3.org/1999/xlink" x="0px" y="0px"
	 viewBox="0 0 90.4 42.5" style="enable-background:new 0 0 90.4 42.5;" xml:space="preserve">
<style type="text/css">
	.st0{fill:#262626;}
</style>
<path class="st0" d="M18.5,27.6v0.2l1.2,1.2v11.9L18.4,42v0.2h7.3V42l-1.2-1.1l0-11.9v-1.4H18.5z M62.5,39.7
	c-0.9-1.4-1.6-2.9-2.1-4.4c-0.6-1.6-1-3.3-1.1-5c0-1.2,0.4-1.8,1.1-1.8c1.2,0,2.6,2,4,5.9c0.6,1.6,1,3.4,1.2,5.1
	c0,0.9-0.2,1.5-0.7,1.6c-0.1,0-0.3,0-0.4,0C63.8,41.2,63.2,40.7,62.5,39.7 M59.8,28c-1.2,0.6-2.2,1.4-3,2.5c-1,1.4-1.5,3.1-1.4,4.8
	c0,1.3,0.3,2.5,0.9,3.7c0.6,1.1,1.4,2,2.5,2.7c1.1,0.7,2.4,1,3.7,1c0.9-0.1,1.7-0.3,2.5-0.7c1.2-0.6,2.2-1.4,3-2.5
	c1-1.4,1.5-3,1.4-4.7c0-1.3-0.3-2.6-0.9-3.7c-0.6-1.1-1.4-2-2.5-2.7c-1.1-0.7-2.4-1-3.7-1C61.5,27.3,60.6,27.6,59.8,28 M30.9,28
	c-1.2,0.5-2.3,1.4-3.1,2.5c-1,1.3-1.4,2.9-1.4,4.5c0,1.4,0.3,2.8,1,4c0.6,1.1,1.6,2,2.7,2.6c1.2,0.6,2.6,0.9,3.9,0.9
	c0.8-0.2,1.5-0.6,2.1-1.2c1.1-1,2.2-2,3.2-3.1L39.2,38c-0.8,0.5-1.7,0.7-2.6,0.8c-1.3,0-2.5-0.5-3.4-1.3c-1-0.9-1.8-2-2.4-3.3
	c-0.5-1.1-0.8-2.3-0.9-3.5c0-0.6,0.1-1.1,0.4-1.6c0.2-0.3,0.6-0.5,1-0.5c0.7,0,1.3,0.5,1.9,1.6c0.6,1.2,1,2.4,1.1,3.8l0.1,0.1
	l4.5-3.9c-0.2-0.4-0.5-0.8-0.8-1.1c-0.5-0.5-1.1-0.9-1.8-1.2c-0.9-0.4-1.8-0.5-2.7-0.5C32.8,27.3,31.8,27.6,30.9,28 M89.5,27.1
	l-1.3,1.1c-1.2-0.6-2.5-0.9-3.8-0.9c-1.4-0.1-2.8,0.4-3.9,1.2c-1,0.8-1.5,2-1.5,3.3c0,0.8,0.3,1.6,0.7,2.2c0.6,0.8,1.4,1.5,2.2,2
	l3.2,2.1c0.7,0.4,1.4,1,2.1,1.5c0.3,0.2,0.5,0.6,0.6,1c0,0.2-0.1,0.5-0.2,0.6c-0.2,0.1-0.4,0.2-0.6,0.2c-0.9-0.1-1.8-0.4-2.6-0.9
	c-1.1-0.7-2.2-1.6-3.1-2.6c-1.1-1.1-1.9-2.3-2.6-3.7h-0.2l0.6,7.6c0.3-0.1,0.6-0.1,0.9-0.1c0.4,0,0.7,0.1,1.1,0.2
	c0.4,0.1,0.6,0.1,0.8,0.1c0.6,0.1,1.1,0.2,1.4,0.3c0.4,0.1,0.9,0.1,1.3,0.1c1.2,0,2.3-0.2,3.4-0.7c0.8-0.4,1.4-1,1.9-1.8
	c0.4-0.7,0.5-1.4,0.5-2.1c0-0.6-0.1-1.3-0.5-1.8c-0.3-0.5-0.7-1-1.2-1.4c-0.5-0.4-1.1-0.9-2-1.5l-3.4-2.5c-0.5-0.3-0.9-0.7-1.3-1.1
	c-0.3-0.2-0.4-0.6-0.4-0.9c0-0.5,0.3-0.7,0.9-0.7c0.7,0.1,1.3,0.3,1.9,0.6c0.9,0.5,1.8,1.2,2.5,2c1,1,1.8,2.1,2.6,3.3h0.2v-7
	L89.5,27.1z M9.9,23.8v0.2c1.7,1.8,3,3.8,4,6c1,2.1,1.5,4.4,1.6,6.7v1.6h-0.2L6.5,23.8H0v0.1l1.9,2.9v15.3h6.3v-0.2
	c-1.7-1.7-3.1-3.6-4.2-5.7c-1-2.1-1.5-4.4-1.5-6.8v-1.8h0.1l8.9,14.5h4.6V23.8H9.9z M20.3,22.2c-0.4,0.4-0.7,1-0.7,1.6
	c0,0.6,0.2,1.2,0.7,1.6c0.5,0.4,1.1,0.6,1.8,0.6c0.6,0,1.2-0.2,1.7-0.6c0.4-0.4,0.7-1,0.6-1.6c0-0.6-0.2-1.2-0.6-1.6
	c-0.5-0.4-1.1-0.6-1.7-0.6C21.4,21.6,20.8,21.8,20.3,22.2 M45.4,21l-6.3,2v0.2l1.7,0.6v17.1l-1.2,1.1v0.2h7.3v-0.2l-1.3-1.1v-9.3
	c0.3-0.6,1-1,1.7-1c1,0,1.5,0.6,1.5,1.8v8.5l-1.3,1.1v0.2h7.3v-0.2l-1.2-1.1V32c0.1-1.2-0.3-2.4-1-3.4c-0.8-0.9-1.9-1.4-3.2-1.3
	c-0.8,0-2,1.2-3.8,3.5V21H45.4z M75.8,21l-6.3,2v0.2l1.7,0.6v17.1L70,41.9v0.2h7.3v-0.2L76,40.9V21H75.8z M37.1,7.4L37.1,7.4
	c0-0.2,0-0.5,0-0.9c0.1-0.8-0.1-1.6-0.6-2.3c-0.4-0.4-0.9-0.7-1.5-0.7c-0.5,0-0.9,0.2-1.3,0.5c-0.4,0.3-0.8,0.7-1.2,1.1
	c-0.4,0.4-0.8,1.1-1.4,2l-0.6,0.8L30.6,8l2-1v10.1l-1.3,1.1v0.2h7.3v-0.2l-1.2-1.1V7.7c0.3-0.6,1-0.9,1.6-0.9c1,0,1.5,0.6,1.5,1.8
	v8.5l-1.2,1.1v0.2h7.3v-0.2l-1.3-1.1V8.3c0.1-1.2-0.3-2.4-1-3.4c-0.8-0.9-1.9-1.4-3.1-1.3C40.3,3.5,39,4.8,37.1,7.4 M21.5,15
	c-0.3-0.3-0.4-0.7-0.4-1.1c0-0.7,0.3-1.3,0.7-1.8c0.7-0.8,1.5-1.4,2.4-2l-0.1,3.9c-0.2,0.4-0.5,0.8-0.9,1.1c-0.3,0.2-0.6,0.4-1,0.4
	C21.9,15.4,21.6,15.3,21.5,15 M22.8,3.9c-1.2,0.5-2.3,1.2-3.3,2.1c-1.4,1.3-2.5,2.9-3.3,4.7l0.1,0.1l5-1.4c-0.3-0.8-0.5-1.7-0.5-2.6
	c0-0.5,0.1-0.9,0.4-1.3c0.2-0.3,0.6-0.4,1-0.4c0.6,0,1.1,0.4,1.5,1.2c0.4,1,0.6,2.1,0.5,3.2l-3,1.3c-1.2,0.5-2.4,1.3-3.5,2.2
	c-0.8,0.7-1.3,1.8-1.3,2.9c0,0.8,0.3,1.6,0.9,2.1c0.6,0.5,1.4,0.8,2.3,0.8c1,0,2-0.3,2.7-1c0.8-0.8,1.4-1.8,1.9-2.8h0.1
	c0,0.3,0,0.5,0,0.8c-0.1,0.8,0.1,1.6,0.6,2.3c0.4,0.5,0.9,0.7,1.5,0.7c0.7,0,1.3-0.3,1.8-0.8c0.8-0.8,1.5-1.7,2.1-2.7l0.6-0.8
	l-0.1-0.1l-2,1v-0.4L29,10c0-0.7,0.1-1.4,0.1-2.1c0-0.8-0.1-1.6-0.3-2.4c-0.2-0.6-0.6-1.2-1.2-1.5c-0.8-0.4-1.7-0.6-2.6-0.5
	C24.3,3.5,23.5,3.7,22.8,3.9 M51.6,4.2c-1.2,0.5-2.3,1.4-3.1,2.4c-1,1.3-1.5,3-1.4,4.6c0,1.4,0.3,2.8,1,4c0.6,1.1,1.6,2,2.7,2.6
	c1.2,0.6,2.6,0.9,3.9,0.9c0.8-0.2,1.5-0.6,2.1-1.2c1.1-1,2.2-2,3.2-3.1l-0.1-0.2c-0.8,0.5-1.7,0.7-2.6,0.7c-1.3,0-2.5-0.5-3.4-1.4
	c-1-0.9-1.8-2-2.4-3.3c-0.5-1.1-0.8-2.3-0.9-3.5c0-0.6,0.1-1.1,0.4-1.6c0.2-0.3,0.6-0.5,1-0.5c0.7,0,1.3,0.6,1.9,1.7
	c0.6,1.2,1,2.4,1.1,3.8l0.1,0.1l4.5-3.9c-0.2-0.4-0.4-0.8-0.7-1.2c-0.5-0.5-1.1-0.9-1.8-1.2c-0.9-0.4-1.8-0.5-2.7-0.5
	C53.5,3.5,52.5,3.8,51.6,4.2 M64,7.1c0-0.6,0.1-1.2,0.4-1.8c0.2-0.4,0.6-0.6,1-0.6c0.5,0,1,0.3,1.3,0.7c0.5,0.6,0.8,1.3,1,2
	c0.3,0.9,0.4,1.9,0.4,2.8h-3.5C64.2,9.3,64,8.2,64,7.1 M64.9,4.1c-1.2,0.5-2.3,1.4-3.2,2.5c-1,1.3-1.5,3-1.4,4.7
	c0,1.4,0.3,2.7,1,3.9c0.7,1.1,1.6,2,2.8,2.6c1.2,0.6,2.6,0.9,3.9,0.9c0.9,0,2.6-1.4,5.2-4.3l-0.1-0.1c-0.4,0.2-0.9,0.4-1.4,0.6
	c-0.4,0.1-0.8,0.2-1.2,0.2c-1.3,0-2.5-0.4-3.4-1.2c-1-0.8-1.8-1.9-2.3-3.1h3.5c0.6,0,1.2-0.2,1.7-0.4c0.7-0.3,1.4-0.6,2.1-1
	C72.7,8.9,73,8.6,73,8.4c-0.1-1.3-0.6-2.6-1.5-3.5c-1-1-2.4-1.4-3.8-1.3C66.8,3.6,65.8,3.8,64.9,4.1 M0.5,0v0.2l1.4,1.5L2,16.8
	l-1.5,1.4v0.2H15V9.5h-0.2l-0.8,1.4c-0.9,1.7-1.7,3.1-2.2,4c-0.5,0.8-1,1.5-1.7,2.1c-0.6,0.5-1.3,0.8-2.1,0.8H7.2V1.7l1.4-1.5V0H0.5
	z"/>
</svg>
