<?xml version="1.0" encoding="UTF-8"?><svg id="a" xmlns="http://www.w3.org/2000/svg" viewBox="0 0 170.7 21.5"><defs><style>.c{fill:#262626;}</style></defs><path id="b" class="c" d="M98.8,6.64v.17l1.24,1.19v11.92l-1.28,1.06v.16h7.31v-.16l-1.25-1.06,.03-11.92v-1.36h-6.05Zm44,12.1c-.87-1.39-1.56-2.88-2.06-4.44-.62-1.6-.99-3.29-1.11-5,0-1.18,.37-1.77,1.11-1.77,1.25,0,2.58,2,4,5.92,.64,1.64,1.04,3.36,1.17,5.11,0,.9-.23,1.45-.68,1.63-.14,0-.27,0-.41,0-.65,0-1.32-.49-2-1.48m-2.67-11.71c-1.19,.55-2.22,1.39-3,2.45-1,1.38-1.49,3.06-1.4,4.76-.01,1.27,.29,2.53,.87,3.66,.56,1.1,1.42,2.03,2.47,2.68,1.11,.68,2.39,1.02,3.69,1,.88-.08,1.74-.31,2.54-.69,1.19-.57,2.23-1.42,3.01-2.49,1-1.35,1.49-3.01,1.4-4.69,.01-1.3-.28-2.58-.87-3.74-.56-1.11-1.43-2.04-2.49-2.69-1.11-.68-2.4-1.02-3.7-1-.88,.08-1.74,.31-2.53,.7m-28.87,.05c-1.23,.54-2.29,1.39-3.11,2.45-.96,1.32-1.45,2.92-1.38,4.55-.04,1.4,.31,2.78,1,4,.63,1.11,1.57,2,2.71,2.58,1.21,.61,2.55,.92,3.91,.9,.8-.18,1.54-.59,2.12-1.18,1.14-.97,2.21-2.02,3.2-3.14l-.15-.16c-.81,.46-1.71,.72-2.64,.76-1.27,0-2.5-.49-3.43-1.35-1.03-.9-1.85-2.02-2.4-3.27-.54-1.1-.83-2.3-.87-3.53-.04-.56,.1-1.13,.39-1.61,.24-.34,.64-.53,1.05-.52,.7,0,1.35,.54,1.94,1.64,.61,1.17,.99,2.45,1.12,3.76l.14,.08,4.54-3.86c-.2-.42-.47-.79-.81-1.1-.51-.52-1.12-.92-1.79-1.2-.85-.36-1.77-.53-2.7-.51-.98,.06-1.95,.3-2.84,.72m58.56-.89l-1.27,1.06c-1.17-.63-2.48-.95-3.81-.92-1.4-.06-2.77,.37-3.88,1.23-.98,.8-1.53,2.01-1.49,3.28,0,.8,.25,1.58,.73,2.23,.62,.79,1.37,1.46,2.22,2l3.18,2.12c.74,.44,1.44,.96,2.08,1.53,.31,.25,.51,.61,.56,1,.02,.24-.08,.47-.25,.64-.18,.13-.4,.2-.62,.2-.94-.08-1.84-.39-2.62-.92-1.15-.71-2.19-1.58-3.11-2.57-1.05-1.09-1.94-2.33-2.63-3.68h-.17l.58,7.61c.3-.05,.6-.08,.9-.08,.37,.02,.74,.07,1.1,.15,.38,.08,.64,.12,.79,.14,.58,.13,1.06,.22,1.45,.27,.45,.06,.9,.09,1.35,.08,1.17,.05,2.33-.19,3.39-.7,.78-.39,1.43-1.02,1.85-1.79,.35-.66,.54-1.39,.54-2.14,.02-.63-.14-1.25-.46-1.8-.31-.52-.7-.98-1.16-1.36-.46-.39-1.11-.87-2-1.45l-3.45-2.47c-.47-.31-.91-.66-1.3-1.06-.25-.24-.4-.56-.42-.91,0-.49,.3-.73,.9-.73,.68,.06,1.34,.28,1.91,.65,.92,.55,1.76,1.22,2.49,2,.97,1.01,1.84,2.12,2.57,3.32h.19V6.05l-.14,.07ZM90.21,2.76v.16c1.67,1.76,3.02,3.79,4,6,1,2.11,1.53,4.41,1.56,6.75v1.6h-.16l-8.82-14.51h-6.46v.14l1.85,2.87v15.32h6.3v-.16c-1.69-1.66-3.1-3.59-4.15-5.72-1.01-2.11-1.52-4.42-1.49-6.75v-1.79h.14l8.88,14.47h4.59V2.76h-6.24Zm10.42-1.57c-.45,.4-.69,.97-.67,1.57-.03,.61,.22,1.21,.67,1.62,.48,.42,1.11,.64,1.75,.61,.62,.02,1.21-.2,1.67-.61,.43-.43,.66-1.01,.64-1.62,.02-.59-.21-1.16-.64-1.57-.46-.41-1.06-.63-1.67-.6-.64-.03-1.26,.18-1.75,.6m25.13-1.19l-6.33,2v.16l1.71,.6V19.87l-1.25,1.06v.16h7.31v-.16l-1.28-1.06V10.58c.34-.6,.97-.97,1.66-1,1,0,1.49,.59,1.49,1.76v8.53l-1.27,1.06v.16h7.3v-.16l-1.25-1.06V11.02c.06-1.23-.29-2.44-1-3.44-.77-.93-1.95-1.42-3.15-1.32-.76,0-2,1.17-3.8,3.51V0h-.14Zm30.41,0l-6.32,2v.16l1.71,.6V19.87l-1.23,1.06v.16h7.3v-.16l-1.3-1.06V0h-.16ZM36.58,10.21h0v-.87c.07-.82-.12-1.64-.56-2.33-.37-.45-.93-.7-1.51-.68-.48,.02-.95,.18-1.33,.47-.44,.31-.83,.68-1.17,1.1-.36,.45-.84,1.1-1.43,2l-.58,.81,.11,.09,2-1v10.11l-1.28,1.06v.16h7.31v-.16l-1.25-1.06V10.54c.34-.57,.96-.92,1.62-.92,1,0,1.47,.58,1.47,1.76v8.53l-1.25,1.06v.16h7.3v-.16l-1.27-1.06V11.06c.06-1.23-.29-2.44-1-3.44-.76-.9-1.9-1.4-3.08-1.32-.84,0-2.2,1.31-4.1,3.91m-6.28,6.81l-2,1v-.4l.21-4.82c0-.74,.08-1.45,.08-2.12,.02-.81-.09-1.62-.33-2.4-.2-.62-.62-1.15-1.19-1.48-.79-.4-1.68-.58-2.56-.52-.74,.05-1.46,.21-2.16,.46h-.02c-1.22,.48-2.34,1.17-3.3,2.06-1.42,1.33-2.55,2.93-3.31,4.72l.08,.13,5-1.41c-.3-.85-.46-1.73-.49-2.63-.03-.47,.09-.94,.35-1.34,.23-.28,.58-.44,.95-.43,.63,0,1.14,.4,1.52,1.21,.42,1.02,.6,2.12,.55,3.22l-3,1.3c-1.25,.54-2.41,1.27-3.45,2.15-.83,.71-1.3,1.76-1.28,2.85-.04,.8,.28,1.58,.86,2.13,.63,.53,1.44,.81,2.27,.77,1.01,.04,1.99-.32,2.74-1,.8-.8,1.44-1.75,1.87-2.8h.14c-.01,.26-.01,.53,0,.79-.07,.82,.13,1.64,.57,2.34,.38,.45,.94,.71,1.53,.68,.68-.02,1.33-.31,1.79-.82,.77-.82,1.47-1.71,2.09-2.66l.6-.84-.11-.14Zm-6.65-.28c-.2,.44-.51,.81-.9,1.1-.29,.22-.64,.35-1,.37-.31-.01-.6-.15-.82-.37l.03-.04c-.28-.31-.41-.72-.38-1.13,.03-.66,.28-1.29,.72-1.79,.71-.78,1.52-1.45,2.41-2l-.06,3.86ZM51.13,7c-1.23,.54-2.29,1.38-3.1,2.45-.98,1.33-1.47,2.97-1.39,4.62-.03,1.4,.31,2.78,1,4,.63,1.11,1.57,2,2.71,2.58,1.21,.61,2.55,.92,3.91,.9,.81-.18,1.54-.59,2.12-1.18,1.14-.97,2.22-2.02,3.21-3.14l-.14-.16c-.81,.45-1.71,.7-2.64,.73-1.28,0-2.5-.48-3.44-1.35-1.03-.9-1.85-2.02-2.4-3.27-.54-1.1-.83-2.3-.87-3.53-.03-.56,.11-1.12,.41-1.6,.23-.33,.6-.52,1-.53,.7,0,1.35,.55,1.94,1.65,.61,1.17,.99,2.45,1.13,3.76l.13,.08,4.54-3.86c-.17-.43-.42-.82-.74-1.16-.53-.51-1.15-.92-1.83-1.19-.85-.36-1.77-.53-2.7-.51-.98,.06-1.95,.3-2.84,.72m21.47,10.09c-.44,.23-.9,.43-1.37,.58-.38,.12-.78,.18-1.18,.18-1.25,.02-2.47-.41-3.42-1.22-1-.85-1.79-1.92-2.31-3.13h3.47c.59-.04,1.16-.18,1.71-.4,.73-.26,1.43-.6,2.09-1,.62-.39,.93-.7,.93-.93-.05-1.32-.59-2.57-1.5-3.52-1.02-.95-2.38-1.44-3.77-1.34-.99,.06-1.96,.29-2.87,.7l.03-.08c-1.25,.54-2.34,1.39-3.16,2.47-.99,1.35-1.49,3-1.41,4.67-.03,1.38,.31,2.74,1,3.93,.66,1.1,1.62,2,2.77,2.58,1.22,.61,2.57,.93,3.94,.91,.87,0,2.6-1.42,5.19-4.27l-.14-.13Zm-9.1-7.16c-.04-.62,.11-1.25,.42-1.79,.2-.37,.58-.6,1-.63,.54,.02,1.03,.3,1.34,.74,.47,.59,.81,1.27,1,2,.26,.91,.39,1.86,.4,2.81h-3.53c-.4-1-.61-2.06-.63-3.13ZM.03,2.8v.16l1.41,1.52,.07,15.07-1.51,1.42v.16H14.51V12.3h-.16l-.76,1.44c-.92,1.74-1.66,3.06-2.2,4-.46,.77-1.04,1.47-1.71,2.06-.56,.51-1.29,.79-2.05,.8h-.9V4.48l1.41-1.52v-.16H.03Z"/></svg>